<?xml version="1.0" standalone="no"?>
<!DOCTYPE svg PUBLIC "-//W3C//DTD SVG 20010904//EN"
        "http://www.w3.org/TR/2001/REC-SVG-20010904/DTD/svg10.dtd">
<svg version="1.0" xmlns="http://www.w3.org/2000/svg"
     width="700.000000pt" height="700.000000pt" viewBox="0 0 700.000000 700.000000"
     preserveAspectRatio="xMidYMid meet">
    <metadata>
        Created by potrace 1.11, written by Peter Selinger 2001-2013
    </metadata>
    <g transform="translate(0.000000,700.000000) scale(0.100000,-0.100000)"
       fill="#000000" stroke="none">
        <path d="M1747 5249 l-1747 -1749 1750 -1750 1750 -1750 1750 1750 1750 1750
-1750 1750 c-963 963 -1751 1750 -1753 1749 -1 0 -788 -788 -1750 -1750z
m1955 903 c114 -114 585 -584 1046 -1044 l839 -838 -846 -2 -846 -3 -1 -100
c-1 -55 -2 -104 -3 -108 0 -5 -27 14 -58 41 -32 27 -78 60 -103 74 -66 38
-203 93 -293 118 -93 26 -65 19 -312 69 -359 73 -428 103 -470 204 -19 46 -12
146 13 186 37 61 106 102 212 127 88 20 381 12 505 -14 159 -34 310 -81 446
-140 l46 -20 -1 276 -1 276 -50 13 c-27 7 -61 14 -75 17 -14 2 -54 11 -90 20
-105 24 -278 50 -435 65 -87 8 -404 6 -475 -3 -83 -11 -241 -59 -312 -95 -43
-21 -78 -37 -78 -36 0 6 1125 1125 1130 1125 3 -1 98 -94 212 -208z m-1578
-1174 c-48 -94 -68 -160 -80 -268 -36 -302 68 -558 282 -695 49 -32 135 -76
154 -80 3 -1 22 -9 44 -18 52 -23 180 -57 426 -112 315 -72 412 -122 439 -230
39 -155 -34 -271 -199 -315 -74 -20 -81 -21 -193 -25 -253 -10 -539 62 -849
216 -45 21 -83 38 -85 36 -7 -8 -3 -551 4 -557 28 -23 295 -101 463 -135 21
-4 148 -24 190 -29 186 -25 441 -25 606 -1 147 22 317 82 410 145 27 18 73 57
101 86 29 30 54 54 55 54 2 0 3 -297 3 -660 l-1 -660 333 0 333 0 0 535 0 535
520 0 520 0 0 253 0 253 -520 0 -520 -1 0 228 0 227 28 0 c15 1 257 1 537 1
281 0 517 2 525 4 14 4 16 35 15 215 0 115 1 210 2 210 6 0 684 -682 682 -685
-16 -18 -453 -455 -1565 -1565 l-1296 -1292 -23 23 c-12 13 -657 657 -1433
1430 l-1411 1406 762 761 c419 418 763 761 765 761 1 1 -9 -22 -24 -51z"/>
    </g>
</svg>
